<?xml version="1.0" standalone="no"?>
<!DOCTYPE svg PUBLIC "-//W3C//DTD SVG 20010904//EN"
 "http://www.w3.org/TR/2001/REC-SVG-20010904/DTD/svg10.dtd">
<svg version="1.0" xmlns="http://www.w3.org/2000/svg"
 width="1024.000000pt" height="1024.000000pt" viewBox="0 0 1024.000000 1024.000000"
 preserveAspectRatio="xMidYMid meet">

<g transform="translate(0.000000,1024.000000) scale(0.100000,-0.100000)"
fill="#000000" stroke="none">
<path d="M4526 10224 c-3 -9 -4 -19 -1 -22 3 -3 5 1 6 9 0 8 4 6 9 -6 7 -17 9
-17 9 -2 2 36 21 15 21 -23 0 -22 5 -40 10 -40 6 0 10 9 10 20 0 11 5 20 10
20 6 0 10 -4 10 -10 0 -5 7 -10 15 -10 8 0 15 -9 15 -20 0 -17 7 -20 41 -20
33 0 40 3 37 18 -2 9 -10 18 -18 18 -8 1 -19 2 -23 3 -5 0 -1 8 8 17 15 15 17
15 34 0 11 -10 35 -16 64 -16 40 0 47 3 47 20 0 11 7 20 15 20 10 0 15 -10 15
-30 0 -16 5 -30 11 -30 16 0 39 26 39 44 0 9 7 16 15 16 10 0 15 -10 15 -30 0
-16 5 -30 10 -30 6 0 10 4 10 9 0 5 11 12 25 15 34 9 84 -21 92 -54 8 -33 42
-70 65 -70 12 0 16 -4 12 -12 -5 -8 -2 -9 9 -5 9 3 19 2 22 -4 4 -5 1 -8 -7
-7 -8 2 -14 -8 -16 -23 -3 -22 2 -28 23 -33 16 -4 33 -2 41 5 10 8 14 8 14 0
0 -6 -4 -11 -10 -11 -5 0 -10 -4 -10 -10 0 -5 7 -10 16 -10 8 0 12 -5 8 -11
-4 -8 -9 -8 -17 0 -20 20 -34 12 -29 -14 4 -22 10 -25 43 -25 32 0 39 -4 39
-19 0 -17 9 -20 83 -23 45 -2 85 1 89 6 3 5 14 2 23 -8 10 -9 14 -20 11 -24
-4 -3 -11 0 -16 7 -7 12 -11 11 -25 -2 -9 -10 -12 -17 -6 -17 5 0 12 -8 14
-17 2 -10 3 -8 2 5 -2 22 9 30 19 13 10 -15 46 0 46 19 0 12 10 20 31 24 47 9
49 8 49 -19 0 -22 4 -25 35 -25 19 0 35 -4 35 -10 0 -5 5 -10 10 -10 6 0 10 9
10 20 0 31 17 24 24 -10 4 -24 11 -30 30 -30 13 0 27 6 30 13 5 10 7 10 12 0
4 -9 34 -13 92 -14 65 -1 78 -4 52 -9 l-35 -7 40 -3 c32 -2 35 -4 13 -7 -22
-3 -28 -10 -28 -29 0 -21 4 -24 40 -24 33 0 40 -3 40 -20 0 -13 7 -20 20 -20
13 0 20 -7 20 -20 0 -13 7 -20 20 -20 13 0 20 -7 20 -20 0 -13 7 -20 20 -20
13 0 20 -7 20 -20 0 -13 7 -20 19 -20 10 0 19 -6 18 -12 -1 -46 5 -68 18 -68
8 0 15 7 15 15 0 8 5 15 10 15 6 0 10 -11 10 -25 0 -14 5 -25 10 -25 6 0 10 9
10 20 0 11 5 20 10 20 6 0 10 -4 10 -10 0 -5 13 -10 28 -10 15 0 33 -5 40 -12
9 -9 13 -7 18 6 4 11 1 21 -7 26 -7 5 -10 12 -7 15 4 4 17 -2 29 -14 13 -12
34 -21 48 -21 36 0 71 -11 71 -21 0 -5 -7 -9 -15 -9 -8 0 -15 -4 -15 -10 0 -5
9 -10 20 -10 12 0 20 -7 20 -16 0 -13 7 -15 34 -11 25 4 39 1 48 -10 11 -14
10 -15 -9 -9 -13 4 -24 2 -29 -5 -4 -8 -3 -9 4 -5 13 8 49 -11 74 -38 10 -11
21 -16 26 -11 4 4 1 10 -5 12 -15 5 -17 33 -3 33 6 0 10 -5 10 -11 0 -27 30
-39 95 -39 58 0 68 -3 72 -20 4 -16 14 -20 44 -20 24 0 39 5 40 13 0 6 5 2 11
-10 11 -23 38 -32 38 -13 0 6 7 10 15 10 9 0 15 -9 15 -21 0 -19 4 -20 40 -14
37 6 40 5 40 -17 1 -12 8 -34 16 -48 l15 -25 -6 29 c-6 26 -5 27 10 12 9 -9
23 -16 31 -16 8 0 14 -4 14 -10 0 -5 18 -10 40 -10 22 0 40 -4 40 -10 0 -5 9
-10 19 -10 11 0 21 -4 23 -9 2 -6 25 -11 52 -13 33 -2 51 -8 53 -18 4 -12 3
-12 -5 -2 -7 11 -10 11 -15 -3 -4 -9 -3 -13 3 -10 6 3 10 2 10 -3 0 -12 53 -2
62 12 5 6 5 -4 2 -21 -6 -29 -4 -33 15 -33 14 0 21 -6 21 -20 0 -17 7 -20 40
-20 33 0 40 -3 40 -20 0 -13 7 -20 20 -20 13 0 20 -7 20 -20 0 -22 40 -29 40
-7 0 6 6 3 12 -8 7 -11 18 -26 25 -33 11 -11 13 -10 13 7 0 17 6 21 35 21 28
0 35 -4 35 -20 0 -13 7 -20 20 -20 11 0 20 -7 20 -15 0 -8 -9 -15 -19 -15 -11
0 -23 -4 -26 -10 -4 -6 5 -10 19 -10 14 0 26 -4 26 -10 0 -5 -9 -10 -20 -10
-11 0 -20 -5 -20 -11 0 -8 14 -10 40 -6 35 4 40 2 40 -14 0 -12 7 -19 19 -19
11 0 22 -6 24 -12 3 -7 3 3 0 22 -3 27 -2 31 6 20 10 -13 12 -13 22 0 8 12 10
9 6 -14 -6 -39 1 -56 24 -56 12 0 19 -7 19 -20 0 -17 7 -20 40 -20 33 0 40 -3
40 -20 0 -17 7 -20 39 -20 22 0 41 -5 43 -10 2 -6 13 -12 26 -13 12 0 22 -7
22 -14 0 -14 16 -18 24 -5 2 4 23 6 45 4 40 -4 41 -5 41 -43 0 -39 0 -39 40
-39 33 0 40 -3 40 -19 0 -11 8 -22 18 -24 16 -4 16 -5 0 -6 -33 -2 -18 -19 22
-26 39 -7 40 -8 40 -46 l0 -39 51 0 c51 0 51 0 47 -30 -5 -35 5 -39 20 -7 6
12 11 16 11 10 1 -7 8 -13 16 -13 9 0 15 -9 15 -24 0 -22 3 -24 40 -19 l40 6
0 -37 c0 -29 4 -36 20 -36 18 0 47 -36 37 -47 -3 -2 -8 5 -12 16 -7 24 -45 29
-45 6 0 -20 22 -65 32 -65 4 0 8 5 8 10 0 21 18 9 30 -20 8 -18 20 -30 31 -30
13 0 19 -7 19 -22 0 -18 2 -20 10 -8 12 19 20 10 23 -27 1 -16 11 -38 21 -49
11 -10 16 -13 12 -6 -11 18 11 41 34 35 11 -3 17 -9 15 -13 -3 -5 7 -11 22
-13 27 -4 27 -4 3 -6 -23 -1 -25 -4 -22 -46 2 -25 8 -45 13 -45 5 0 9 -9 9
-20 0 -16 7 -20 30 -20 23 0 30 4 30 20 0 13 7 20 20 20 17 0 20 -7 20 -40 0
-33 3 -40 20 -40 16 0 20 -7 20 -34 0 -25 5 -35 20 -39 12 -3 20 -14 20 -26 0
-14 6 -21 20 -21 13 0 20 -7 20 -18 0 -11 9 -27 20 -37 14 -13 20 -31 20 -62
0 -36 3 -43 20 -43 13 0 20 -7 20 -20 0 -17 7 -20 41 -20 36 0 40 -3 39 -22
-1 -13 -2 -49 -1 -80 1 -52 3 -58 22 -58 16 0 20 -5 17 -27 -3 -24 1 -28 25
-31 15 -2 27 -8 27 -13 0 -5 7 -9 15 -9 8 0 15 -9 15 -20 0 -17 7 -20 40 -20
33 0 40 -3 40 -20 0 -14 7 -20 21 -20 13 0 18 -4 13 -11 -5 -9 1 -10 22 -5 18
4 24 3 16 -2 -11 -7 -10 -12 3 -26 10 -9 14 -20 11 -24 -7 -6 -19 8 -30 33 -5
11 -26 -14 -25 -30 0 -5 3 -4 6 3 8 21 25 13 19 -10 -3 -13 -3 -17 0 -10 8 17
24 5 24 -19 0 -16 7 -19 40 -19 33 0 40 -3 40 -20 0 -25 27 -27 33 -2 2 9 3 7
2 -6 -2 -14 4 -26 14 -29 64 -21 69 -26 73 -70 2 -24 0 -43 -4 -43 -19 0 -5
-20 17 -26 14 -3 22 -10 19 -15 -3 -5 2 -9 11 -9 21 0 45 -24 45 -44 0 -9 7
-16 15 -16 8 0 15 -5 15 -11 0 -14 26 -39 40 -39 6 0 10 -6 7 -12 -2 -7 -14
-12 -26 -11 -19 3 -21 -2 -21 -45 0 -34 3 -43 10 -32 7 11 10 3 11 -30 l1 -45
8 40 c4 22 6 45 3 51 -2 7 0 15 6 19 6 3 11 0 11 -7 0 -10 3 -9 11 2 7 11 8 6
4 -19 -5 -23 -4 -31 4 -27 7 5 11 -6 11 -33 0 -34 3 -41 20 -41 16 0 20 -7 20
-35 0 -27 -4 -35 -17 -35 -13 0 -11 -5 10 -18 18 -11 27 -25 27 -42 0 -25 20
-67 20 -42 0 6 5 12 10 12 6 0 10 -7 10 -15 0 -8 -7 -15 -15 -15 -8 0 -15 -4
-15 -10 0 -5 7 -10 16 -10 10 0 13 -6 9 -19 -4 -13 0 -20 15 -24 17 -4 20 -13
20 -56 0 -39 4 -51 15 -51 11 0 15 -11 15 -40 0 -33 3 -40 20 -40 17 0 20 -7
20 -39 0 -23 -5 -41 -12 -44 -7 -2 -4 -3 7 -1 11 2 35 4 53 4 l32 0 0 2140 0
2140 -2845 0 c-2273 0 -2845 -2 -2845 -12 0 -10 -2 -10 -9 0 -6 11 -10 10 -15
-4z m524 -50 c0 -2 -7 -4 -15 -4 -8 0 -15 4 -15 10 0 5 7 7 15 4 8 -4 15 -8
15 -10z m180 -169 c0 -8 -4 -15 -10 -15 -5 0 -10 7 -10 15 0 8 5 15 10 15 6 0
10 -7 10 -15z m246 -95 c8 0 14 -4 14 -10 0 -5 -6 -10 -14 -10 -14 0 -27 22
-25 43 1 7 3 4 6 -5 2 -10 11 -18 19 -18z m127 -47 c-13 -2 -33 -2 -45 0 -13
2 -3 4 22 4 25 0 35 -2 23 -4z m607 -363 c0 -5 -7 -10 -15 -10 -8 0 -15 5 -15
10 0 6 7 10 15 10 8 0 15 -4 15 -10z m100 -20 c0 -5 -4 -10 -10 -10 -5 0 -10
5 -10 10 0 6 5 10 10 10 6 0 10 -4 10 -10z m350 -125 c-7 -9 -15 -13 -19 -10
-3 3 1 10 9 15 21 14 24 12 10 -5z m383 -132 c-13 -2 -33 -2 -45 0 -13 2 -3 4
22 4 25 0 35 -2 23 -4z m517 -243 c0 -13 -7 -20 -20 -20 -13 0 -20 7 -20 20 0
13 7 20 20 20 13 0 20 -7 20 -20z m381 -253 c-10 -9 -11 -8 -5 6 3 10 9 15 12
12 3 -3 0 -11 -7 -18z"/>
<path d="M4736 10113 c-4 -9 -3 -20 1 -24 4 -4 9 3 9 17 2 28 -1 31 -10 7z"/>
<path d="M5805 9740 c11 -5 27 -9 35 -9 9 0 8 4 -5 9 -11 5 -27 9 -35 9 -9 0
-8 -4 5 -9z"/>
<path d="M6020 9426 c0 -2 7 -7 16 -10 8 -3 12 -2 9 4 -6 10 -25 14 -25 6z"/>
<path d="M6290 9380 c0 -5 5 -10 10 -10 6 0 10 5 10 10 0 6 -4 10 -10 10 -5 0
-10 -4 -10 -10z"/>
<path d="M6173 9373 c9 -2 25 -2 35 0 9 3 1 5 -18 5 -19 0 -27 -2 -17 -5z"/>
<path d="M7645 8780 c-13 -5 -14 -9 -5 -9 8 0 24 4 35 9 13 5 14 9 5 9 -8 0
-24 -4 -35 -9z"/>
<path d="M4540 8610 c-179 -5 -174 -5 165 -12 193 -5 688 -11 1100 -14 1181
-8 1322 -18 1600 -109 137 -45 305 -120 305 -137 0 -13 -11 -10 -75 21 -148
71 -304 113 -507 136 -110 12 -270 15 -825 15 -620 0 -745 -4 -643 -23 16 -3
10 -5 -17 -6 -24 0 -43 -6 -43 -12 0 -8 -4 -8 -12 -2 -7 6 -28 11 -47 11 -47
1 -52 12 -5 14 21 0 1 4 -45 8 -46 3 -103 3 -125 -1 l-41 -6 38 -2 c20 0 37
-5 37 -10 0 -5 19 -8 43 -8 69 1 137 -16 137 -34 0 -11 -17 -12 -24 -1 -3 5
-26 7 -53 6 -26 -1 -106 -2 -178 -3 -88 -1 -125 -4 -115 -11 12 -8 8 -10 -15
-11 -23 -1 -25 -3 -8 -6 16 -3 22 -10 20 -23 -2 -11 -5 -21 -8 -24 -2 -2 -341
-7 -754 -10 -934 -8 -1035 -16 -1264 -92 -199 -66 -338 -150 -485 -293 -209
-203 -287 -327 -382 -604 -62 -181 -76 -287 -79 -600 -2 -153 -6 -281 -9 -284
-3 -4 -6 -25 -7 -47 0 -39 -1 -40 -11 -16 -11 25 -11 25 -15 3 -3 -13 -11 -23
-19 -23 -8 0 -14 -8 -14 -18 0 -11 -9 -27 -20 -37 -11 -10 -20 -26 -20 -37 0
-10 -6 -18 -14 -18 -17 0 -26 -22 -26 -60 0 -16 -6 -31 -12 -34 -10 -5 -10 -7
0 -12 18 -9 14 -42 -6 -49 -17 -5 -19 -23 -25 -193 -4 -103 -10 -739 -14
-1415 -3 -675 -10 -1227 -15 -1227 -4 0 -8 28 -9 63 0 34 -2 76 -4 92 -1 17
-8 413 -14 880 -13 1008 -22 1498 -28 1505 -2 3 -2 -585 0 -1305 4 -1079 8
-1328 20 -1410 46 -318 146 -590 292 -801 160 -230 373 -419 618 -549 101 -54
292 -128 372 -145 33 -7 67 -17 75 -22 11 -7 10 -8 -5 -3 -33 12 -190 15 -221
5 -77 -24 -108 -39 -110 -53 -3 -21 32 -27 231 -38 191 -12 4422 -24 4523 -14
63 7 63 7 42 25 -12 10 -45 25 -73 33 -60 17 -133 37 -156 42 -9 2 -32 9 -51
14 -19 6 -57 11 -85 12 -50 0 -49 0 49 30 110 33 271 106 358 162 310 200 571
521 687 845 59 165 72 222 76 346 2 61 8 152 14 201 13 105 5 3088 -9 3530 -8
253 -10 281 -44 445 -77 374 -181 601 -384 843 -97 115 -232 238 -340 310 -99
66 -295 165 -392 197 -227 76 -304 80 -1620 78 -602 -1 -1178 -5 -1280 -8z
m829 -186 c59 -12 31 -24 -56 -24 -52 0 -83 4 -77 9 19 18 81 25 133 15z m221
-44 c0 -5 -4 -10 -10 -10 -5 0 -10 5 -10 10 0 6 5 10 10 10 6 0 10 -4 10 -10z
m-2243 -126 c-3 -3 -12 -4 -19 -1 -8 3 -5 6 6 6 11 1 17 -2 13 -5z m3778 -52
c145 -27 218 -50 352 -113 395 -184 634 -499 735 -967 20 -92 21 -130 23 -702
l2 -605 -7 550 c-7 578 -11 625 -60 834 -30 127 -41 164 -46 159 -2 -3 5 -39
15 -81 11 -42 27 -120 36 -174 8 -54 20 -122 25 -152 6 -31 9 -229 8 -460 -1
-223 -3 -388 -5 -366 -2 22 -6 51 -10 65 -6 24 -7 23 -13 -10 l-7 -35 -2 33
c-1 22 -6 32 -17 32 -9 0 -14 7 -12 18 1 9 -2 18 -7 19 -6 2 -10 -8 -10 -22 0
-13 -5 -29 -12 -36 -9 -9 -11 -6 -6 12 5 19 3 22 -7 12 -7 -6 -19 -9 -26 -6
-8 3 -22 2 -31 -2 -17 -7 -16 -8 2 -16 15 -7 9 -8 -20 -5 -22 3 -32 2 -22 0 9
-3 15 -9 12 -14 -3 -5 -12 -7 -20 -3 -8 3 -15 1 -15 -5 0 -6 -8 -8 -19 -5 -12
3 -20 -2 -24 -16 -4 -17 -9 -19 -29 -12 -13 5 -22 15 -20 25 2 12 -5 16 -26
16 -25 0 -28 -3 -26 -30 2 -26 0 -28 -17 -19 -11 5 -17 14 -14 18 6 11 -42 25
-72 22 -13 -1 -23 2 -23 8 0 6 7 11 16 11 29 0 -14 32 -54 40 -20 4 -44 10
-52 12 -8 3 -12 3 -7 1 13 -8 7 -33 -8 -33 -9 0 -15 -10 -16 -22 -1 -22 -1
-22 -9 2 -8 24 -8 24 -9 3 -1 -31 -51 -34 -51 -3 0 11 -7 20 -15 20 -8 0 -15
-9 -15 -20 0 -13 -9 -22 -25 -26 -14 -3 -25 -14 -26 -23 0 -10 -3 -8 -10 7
-14 36 -35 23 -54 -33 -4 -12 -9 -15 -12 -8 -2 7 0 20 6 31 16 30 7 249 -13
310 -25 76 -28 60 -5 -23 34 -123 18 -283 -38 -388 -15 -28 -55 -79 -88 -112
-51 -52 -72 -66 -140 -91 -240 -87 -487 35 -564 279 -11 34 -20 53 -20 42 0
-11 6 -37 14 -59 7 -21 11 -45 8 -54 -5 -11 -3 -13 7 -7 8 5 11 4 6 -3 -3 -5
0 -12 6 -15 7 -3 0 -3 -17 -2 -16 2 -33 4 -37 4 -12 1 -9 61 2 61 6 0 10 5 10
10 0 6 -7 10 -15 10 -8 0 -15 5 -15 12 0 25 -33 98 -44 98 -7 0 -22 9 -34 20
-26 25 -32 25 -32 2 0 -27 -10 -33 -27 -17 -8 8 -23 15 -34 15 -10 0 -19 6
-19 14 0 15 -29 30 -39 21 -3 -3 1 -11 9 -16 10 -7 -8 -9 -60 -4 -72 5 -103
-1 -99 -21 1 -5 0 -20 -1 -34 l-2 -25 -8 25 c-7 22 -8 22 -11 5 -1 -11 -5 9
-9 45 -5 52 -7 39 -8 -71 -3 -220 -36 -363 -121 -517 -99 -179 -270 -312 -469
-363 -234 -60 -489 30 -682 239 -77 84 -130 176 -172 302 -16 48 -26 68 -23
46 14 -89 97 -264 153 -324 19 -20 29 -40 26 -50 -4 -12 -3 -13 3 -4 7 9 19 2
47 -28 20 -22 33 -40 28 -40 -6 0 -17 12 -27 26 -14 21 -22 25 -46 20 -16 -3
-29 -1 -29 4 0 6 -52 10 -130 10 -123 0 -130 -1 -130 -20 0 -11 5 -20 10 -20
6 0 10 -5 10 -11 0 -12 -25 -39 -37 -39 -5 0 -8 -15 -8 -32 3 -90 5 -98 21
-98 12 0 14 -3 6 -13 -6 -7 -9 -27 -7 -45 2 -18 1 -32 -3 -32 -4 0 -21 22 -39
48 -18 26 -56 70 -84 97 l-52 50 53 -62 c67 -78 110 -141 110 -163 0 -10 -35
-36 -95 -70 -161 -92 -393 -280 -481 -392 -25 -32 -52 -64 -60 -73 -14 -13
-73 -15 -477 -13 l-461 3 -23 34 c-19 28 -23 49 -24 115 l-2 81 -7 -60 c-8
-72 -3 -112 21 -145 13 -19 15 -30 7 -44 -5 -9 -8 -20 -5 -23 3 -2 8 5 12 16
6 20 35 19 35 -1 0 -5 -5 -6 -11 -2 -6 3 -4 -5 5 -18 17 -25 13 -88 -5 -88 -5
0 -9 -6 -9 -14 0 -10 -8 -13 -21 -11 -30 6 -42 -4 -28 -21 7 -8 7 -14 1 -14
-5 0 -12 7 -16 15 -8 22 -25 18 -19 -5 4 -16 0 -20 -18 -21 l-24 -1 25 -7 c21
-6 22 -8 8 -14 -10 -3 -18 -13 -18 -22 0 -8 -4 -15 -10 -15 -5 0 -10 7 -10 15
0 8 -6 15 -14 15 -8 0 -17 8 -19 18 -3 10 -5 6 -6 -10 0 -16 4 -28 10 -28 5 0
7 -5 3 -11 -3 -6 -9 -7 -13 -3 -3 5 -19 9 -36 9 -26 0 -30 -4 -33 -28 -3 -25
-7 -28 -27 -23 -14 4 -25 1 -28 -7 -4 -9 -7 -9 -14 0 -5 7 -19 10 -31 6 -17
-4 -22 -13 -22 -38 0 -28 -4 -33 -29 -38 -23 -5 -30 -13 -36 -44 -5 -21 -7
-49 -6 -62 2 -13 -2 -21 -7 -17 -6 3 -13 -98 -18 -262 -14 -452 -12 -510 27
-731 5 -30 7 -56 5 -59 -8 -7 -27 69 -48 193 -19 108 -21 175 -27 670 -5 467
-7 514 -11 310 -3 -132 -5 458 -5 1310 l1 1550 27 110 c38 155 62 225 120 344
62 129 141 235 257 344 198 187 413 289 715 341 l140 25 1690 -3 1690 -2 120
-22z m1197 -1028 l33 -119 3 -1795 c2 -1201 0 -1849 -8 -1958 -18 -277 -66
-460 -176 -672 -66 -128 -133 -219 -239 -325 -80 -81 -244 -210 -329 -260
-108 -63 -327 -136 -511 -170 -146 -28 -841 -37 -2155 -31 -1212 6 -1339 9
-1497 42 -115 23 -311 90 -398 134 -113 59 -258 166 -345 256 l-75 78 86 -80
c159 -146 303 -235 479 -299 128 -45 309 -85 435 -96 171 -14 3195 -14 3346 0
239 22 520 114 681 222 131 88 288 233 386 357 99 125 198 335 246 522 53 207
51 137 51 1895 0 902 -3 1771 -7 1930 -6 263 -9 299 -32 393 -45 180 -25 162
26 -24z m-622 -972 c0 -13 -12 -22 -22 -16 -10 6 -1 24 13 24 5 0 9 -4 9 -8z
m441 -35 c-10 -9 -11 -8 -5 6 3 10 9 15 12 12 3 -3 0 -11 -7 -18z m-71 -27 c0
-5 -4 -10 -10 -10 -5 0 -10 5 -10 10 0 6 5 10 10 10 6 0 10 -4 10 -10z m-283
-6 c-3 -3 -12 -4 -19 -1 -8 3 -5 6 6 6 11 1 17 -2 13 -5z m123 -34 c0 -5 -7
-10 -16 -10 -8 0 -12 5 -9 10 3 6 10 10 16 10 5 0 9 -4 9 -10z m-540 -30 c0
-5 -4 -10 -10 -10 -5 0 -10 5 -10 10 0 6 5 10 10 10 6 0 10 -4 10 -10z m-33
-52 c-3 -8 -6 -5 -6 6 -1 11 2 17 5 13 3 -3 4 -12 1 -19z m-202 -198 c-3 -5
-12 -10 -18 -10 -7 0 -6 4 3 10 19 12 23 12 15 0z m1102 -47 c-3 -10 -5 -4 -5
12 0 17 2 24 5 18 2 -7 2 -21 0 -30z m-1380 11 c-3 -3 -12 -4 -19 -1 -8 3 -5
6 6 6 11 1 17 -2 13 -5z m56 -11 c-7 -2 -21 -2 -30 0 -10 3 -4 5 12 5 17 0 24
-2 18 -5z m-310 -285 c9 -18 30 -67 47 -108 42 -104 247 -511 270 -534 10 -10
23 -15 29 -11 18 11 81 142 81 168 0 40 20 86 41 92 10 4 19 11 19 16 0 6 -6
7 -12 4 -7 -4 -4 2 7 12 19 17 51 98 47 116 -2 5 1 6 6 3 4 -2 14 4 21 16 9
15 9 18 0 13 -7 -5 -10 -3 -7 6 3 8 10 13 16 12 12 -3 34 52 25 61 -4 3 -1 6
5 6 7 0 12 12 12 26 0 14 4 23 10 19 6 -3 10 5 10 19 0 15 7 27 18 31 11 3 24
17 31 31 10 24 16 26 49 21 20 -4 66 -27 102 -51 244 -168 375 -415 383 -725
2 -76 0 -82 -26 -108 l-28 -28 -482 2 -482 3 -81 87 c-128 139 -373 342 -469
390 -62 31 -85 51 -85 73 0 28 73 132 133 190 31 29 54 57 52 60 -2 4 9 20 25
35 17 16 30 24 30 19 0 -5 -9 -15 -21 -22 -12 -7 -18 -16 -15 -19 3 -4 16 3
29 15 39 36 140 92 167 92 20 0 31 -8 43 -32z m-2045 -51 c18 6 17 5 -8 -14
-13 -10 -16 -8 -17 10 0 12 1 17 4 10 2 -7 12 -9 21 -6z m69 -6 c0 -11 -5 -18
-9 -15 -4 3 -5 11 -1 19 7 21 12 19 10 -4z m-77 -51 c0 -5 -7 -10 -15 -10 -8
0 -15 5 -15 10 0 6 7 10 15 10 8 0 15 -4 15 -10z m845 -519 c70 -8 82 -12 102
-37 29 -37 39 -104 24 -156 -16 -53 -84 -125 -130 -138 -20 -5 -71 -10 -115
-10 -77 0 -79 1 -113 36 -55 58 -77 111 -78 181 0 36 4 59 9 56 5 -4 6 2 2 13
-4 10 -4 15 0 11 4 -4 17 2 30 14 36 34 130 44 269 30z m-853 -16 c5 -7 8 -7
8 0 0 19 75 17 92 -2 13 -16 108 -241 108 -258 0 -14 103 -292 169 -458 38
-94 88 -221 111 -282 54 -143 197 -489 222 -538 21 -43 55 -62 91 -53 25 6 48
49 77 141 7 22 25 67 41 100 15 33 38 96 51 140 12 44 28 86 35 92 6 7 19 34
28 60 10 27 28 71 41 98 13 28 35 90 49 139 14 49 29 94 35 100 5 7 22 60 39
118 16 59 36 117 45 130 8 13 27 61 41 108 15 47 34 96 42 109 9 13 28 58 42
100 34 97 75 161 101 161 90 0 484 -331 638 -535 99 -131 210 -387 247 -569
17 -84 32 -266 37 -434 l3 -104 -32 -29 -33 -29 -1569 0 -1570 0 -25 31 c-25
29 -26 36 -26 152 1 211 50 513 105 647 35 85 40 104 24 95 -8 -4 -4 2 9 14
12 12 20 27 16 32 -3 5 0 8 8 7 8 -2 12 6 10 22 -1 19 0 21 7 10 8 -11 12 -8
21 15 7 17 13 40 13 52 1 12 7 21 12 20 6 -1 9 6 9 15 -1 10 2 16 6 13 15 -9
81 81 74 101 -4 13 -3 15 3 6 13 -17 46 19 38 40 -3 8 2 21 12 28 15 12 16 12
6 0 -7 -8 -13 -18 -13 -24 0 -5 51 40 113 100 61 60 135 129 162 152 28 23 42
39 31 36 -10 -4 -30 -18 -44 -30 -14 -13 -30 -24 -36 -24 -6 0 1 8 14 17 14
10 39 33 56 52 20 21 36 31 44 26 9 -6 9 -9 -1 -16 -10 -6 -10 -9 -2 -9 16 0
26 17 13 25 -15 9 -12 25 6 25 8 0 12 5 9 10 -3 6 -2 10 3 10 17 0 21 -13 11
-32 -7 -13 6 -7 40 18 28 21 48 40 46 42 -2 3 -11 -1 -20 -8 -25 -21 -30 -2
-5 20 24 21 49 23 62 5z m-91 -48 c-13 -13 -26 -3 -16 12 3 6 11 8 17 5 6 -4
6 -10 -1 -17z m-241 -190 c0 -2 -15 -16 -32 -33 l-33 -29 29 33 c28 30 36 37
36 29z m-70 -71 c0 -2 -8 -10 -17 -17 -16 -13 -17 -12 -4 4 13 16 21 21 21 13z
m-40 -40 c0 -2 -8 -10 -17 -17 -16 -13 -17 -12 -4 4 13 16 21 21 21 13z m1290
-156 c22 0 31 -22 75 -174 l36 -126 -36 -69 c-42 -79 -94 -138 -130 -147 -48
-12 -68 3 -116 83 -74 123 -76 138 -45 283 15 68 31 130 37 136 13 16 60 23
118 18 24 -2 51 -4 61 -4z m-2717 -77 c-7 -2 -19 -2 -25 0 -7 3 -2 5 12 5 14
0 19 -2 13 -5z m-75 -10 c-10 -2 -28 -2 -40 0 -13 2 -5 4 17 4 22 1 32 -1 23
-4z m-58 -113 c0 -5 -4 -10 -10 -10 -5 0 -10 5 -10 10 0 6 5 10 10 10 6 0 10
-4 10 -10z m-243 -1092 c-3 -8 -6 -5 -6 6 -1 11 2 17 5 13 3 -3 4 -12 1 -19z
m21 -78 c0 -9 -3 -7 -8 5 -5 11 -8 29 -8 40 0 16 2 15 8 -5 4 -14 8 -32 8 -40z
m36 -120 c14 -46 23 -86 21 -88 -5 -5 -41 111 -49 158 -8 49 0 29 28 -70z m90
-217 c14 -29 24 -53 21 -53 -5 0 -55 95 -55 106 0 12 6 2 34 -53z m57 -100
c12 -21 45 -67 72 -103 28 -36 40 -56 28 -45 -35 31 -141 185 -128 185 3 0 16
-17 28 -37z"/>
<path d="M5860 6725 c19 -19 36 -35 39 -35 3 0 -10 16 -29 35 -19 19 -36 35
-39 35 -3 0 10 -16 29 -35z"/>
<path d="M6848 6733 c7 -3 16 -2 19 1 4 3 -2 6 -13 5 -11 0 -14 -3 -6 -6z"/>
<path d="M6998 6733 c6 -2 18 -2 25 0 6 3 1 5 -13 5 -14 0 -19 -2 -12 -5z"/>
<path d="M7048 6723 c7 -3 16 -2 19 1 4 3 -2 6 -13 5 -11 0 -14 -3 -6 -6z"/>
<path d="M7225 6624 c28 -27 52 -48 54 -46 7 4 -41 52 -74 75 -18 12 -10 1 20
-29z"/>
<path d="M7306 6527 c3 -10 9 -15 12 -12 3 3 0 11 -7 18 -10 9 -11 8 -5 -6z"/>
<path d="M6021 6434 c0 -11 3 -14 6 -6 3 7 2 16 -1 19 -3 4 -6 -2 -5 -13z"/>
<path d="M6031 6394 c0 -11 3 -14 6 -6 3 7 2 16 -1 19 -3 4 -6 -2 -5 -13z"/>
<path d="M6042 6330 c0 -19 2 -27 5 -17 2 9 2 25 0 35 -3 9 -5 1 -5 -18z"/>
<path d="M6494 6255 c0 -49 1 -71 3 -48 2 23 2 64 0 90 -2 26 -3 8 -3 -42z"/>
<path d="M7897 6204 c8 -57 22 -77 22 -34 0 19 -6 43 -14 54 -13 17 -14 15 -8
-20z"/>
<path d="M4034 5958 c-11 -13 -42 -43 -69 -67 -56 -49 -42 -46 22 6 23 19 49
45 57 59 20 30 16 31 -10 2z"/>
<path d="M4572 5930 c0 -14 2 -19 5 -12 2 6 2 18 0 25 -3 6 -5 1 -5 -13z"/>
<path d="M3795 5810 c-13 -5 -14 -9 -5 -9 8 0 24 4 35 9 13 5 14 9 5 9 -8 0
-24 -4 -35 -9z"/>
<path d="M3678 5793 c17 -2 47 -2 65 0 17 2 3 4 -33 4 -36 0 -50 -2 -32 -4z"/>
<path d="M4573 5533 c-20 -7 -15 -22 7 -20 20 1 27 12 13 20 -5 2 -14 2 -20 0z"/>
<path d="M3630 4913 c0 -14 44 -74 60 -83 35 -18 26 5 -17 46 -24 23 -43 39
-43 37z"/>
<path d="M2590 4320 c0 -5 5 -10 10 -10 6 0 10 5 10 10 0 6 -4 10 -10 10 -5 0
-10 -4 -10 -10z"/>
<path d="M8580 8220 c0 -5 7 -10 15 -10 8 0 15 5 15 10 0 6 -7 10 -15 10 -8 0
-15 -4 -15 -10z"/>
<path d="M9251 7400 c0 -8 4 -24 9 -35 5 -13 9 -14 9 -5 0 8 -4 24 -9 35 -5
13 -9 14 -9 5z"/>
<path d="M9738 6783 c7 -3 16 -2 19 1 4 3 -2 6 -13 5 -11 0 -14 -3 -6 -6z"/>
<path d="M10 5675 c0 -516 2 -936 5 -933 5 4 9 328 16 1073 1 171 -12 789 -17
794 -2 2 -4 -418 -4 -934z m17 173 c-3 -7 -5 -2 -5 12 0 14 2 19 5 13 2 -7 2
-19 0 -25z"/>
<path d="M9870 6535 c0 -8 5 -15 10 -15 6 0 10 7 10 15 0 8 -4 15 -10 15 -5 0
-10 -7 -10 -15z"/>
<path d="M1954 6165 c0 -115 2 -161 3 -102 2 59 2 154 0 210 -1 56 -3 8 -3
-108z"/>
<path d="M9975 6360 c-3 -5 -2 -10 4 -10 5 0 13 5 16 10 3 6 2 10 -4 10 -5 0
-13 -4 -16 -10z"/>
<path d="M2042 6170 c0 -19 2 -27 5 -17 2 9 2 25 0 35 -3 9 -5 1 -5 -18z"/>
<path d="M32 5620 c0 -14 2 -19 5 -12 2 6 2 18 0 25 -3 6 -5 1 -5 -13z"/>
<path d="M21 272 c-1 -93 -1 -95 45 -183 l46 -89 50 0 c44 0 48 2 35 15 -8 8
-21 28 -29 45 -7 17 -21 30 -30 30 -10 0 -18 5 -18 11 0 14 -39 49 -54 49 -6
0 -4 5 4 10 12 7 13 13 4 27 -7 10 -18 17 -26 17 -10 -1 -13 6 -11 20 2 11 0
48 -5 81 l-10 60 -1 -93z m99 -202 c0 -6 -5 -10 -11 -10 -5 0 -7 5 -4 10 3 6
2 10 -4 10 -6 0 -18 15 -26 33 l-16 32 30 -33 c17 -18 31 -37 31 -42z m15 -40
c3 -5 1 -10 -4 -10 -6 0 -11 5 -11 10 0 6 2 10 4 10 3 0 8 -4 11 -10z"/>
</g>
</svg>
